<?xml version="1.0" encoding="UTF-8" standalone="no"?>
<!-- Created with Inkscape (http://www.inkscape.org/) -->

<svg
   width="83.701271mm"
   height="42.829067mm"
   viewBox="0 0 83.701271 42.829068"
   version="1.1"
   id="svg1"
   inkscape:export-filename="bitmap.svg"
   inkscape:export-xdpi="96"
   inkscape:export-ydpi="96"
   inkscape:version="1.3 (0e150ed6c4, 2023-07-21)"
   sodipodi:docname="logo mariachila.svg"
   xmlns:inkscape="http://www.inkscape.org/namespaces/inkscape"
   xmlns:sodipodi="http://sodipodi.sourceforge.net/DTD/sodipodi-0.dtd"
   xmlns="http://www.w3.org/2000/svg"
   xmlns:svg="http://www.w3.org/2000/svg">
  <sodipodi:namedview
     id="namedview1"
     pagecolor="#ffffff"
     bordercolor="#000000"
     borderopacity="0.25"
     inkscape:showpageshadow="2"
     inkscape:pageopacity="0.0"
     inkscape:pagecheckerboard="0"
     inkscape:deskcolor="#d1d1d1"
     inkscape:document-units="mm"
     inkscape:zoom="1.0343421"
     inkscape:cx="595.54766"
     inkscape:cy="355.29832"
     inkscape:window-width="1920"
     inkscape:window-height="1017"
     inkscape:window-x="-8"
     inkscape:window-y="-8"
     inkscape:window-maximized="1"
     inkscape:current-layer="layer1" />
  <defs
     id="defs1">
    <clipPath
       clipPathUnits="userSpaceOnUse"
       id="clipPath74">
      <path
         d="M 0,612 H 792 V 0 H 0 Z"
         transform="translate(-249.8644,-384.91911)"
         id="path74" />
    </clipPath>
    <clipPath
       clipPathUnits="userSpaceOnUse"
       id="clipPath76">
      <path
         d="M 0,612 H 792 V 0 H 0 Z"
         transform="translate(-262.53061,-382.76581)"
         id="path76" />
    </clipPath>
    <clipPath
       clipPathUnits="userSpaceOnUse"
       id="clipPath78">
      <path
         d="M 0,612 H 792 V 0 H 0 Z"
         transform="translate(-263.00131,-379.81481)"
         id="path78" />
    </clipPath>
    <clipPath
       clipPathUnits="userSpaceOnUse"
       id="clipPath80">
      <path
         d="M 0,612 H 792 V 0 H 0 Z"
         transform="translate(-264.8602,-379.01901)"
         id="path80" />
    </clipPath>
    <clipPath
       clipPathUnits="userSpaceOnUse"
       id="clipPath82">
      <path
         d="M 0,612 H 792 V 0 H 0 Z"
         transform="translate(-268.354,-375.29451)"
         id="path82" />
    </clipPath>
    <clipPath
       clipPathUnits="userSpaceOnUse"
       id="clipPath84">
      <path
         d="M 0,612 H 792 V 0 H 0 Z"
         transform="translate(-264.68301,-372.49721)"
         id="path84" />
    </clipPath>
    <clipPath
       clipPathUnits="userSpaceOnUse"
       id="clipPath86">
      <path
         d="M 0,612 H 792 V 0 H 0 Z"
         transform="translate(-265.58521,-370.44671)"
         id="path86" />
    </clipPath>
    <clipPath
       clipPathUnits="userSpaceOnUse"
       id="clipPath88">
      <path
         d="M 0,612 H 792 V 0 H 0 Z"
         transform="translate(-264.94851,-367.53081)"
         id="path88" />
    </clipPath>
    <clipPath
       clipPathUnits="userSpaceOnUse"
       id="clipPath90">
      <path
         d="M 0,612 H 792 V 0 H 0 Z"
         transform="translate(-266.4307,-366.15561)"
         id="path90" />
    </clipPath>
    <clipPath
       clipPathUnits="userSpaceOnUse"
       id="clipPath92">
      <path
         d="M 0,612 H 792 V 0 H 0 Z"
         transform="translate(-269.21061,-363.74841)"
         id="path92" />
    </clipPath>
    <clipPath
       clipPathUnits="userSpaceOnUse"
       id="clipPath94">
      <path
         d="M 0,612 H 792 V 0 H 0 Z"
         transform="translate(-265.4428,-361.42551)"
         id="path94" />
    </clipPath>
    <clipPath
       clipPathUnits="userSpaceOnUse"
       id="clipPath72">
      <path
         d="M 0,612 H 792 V 0 H 0 Z"
         transform="translate(-261.6163,-288.43441)"
         id="path72" />
    </clipPath>
    <clipPath
       clipPathUnits="userSpaceOnUse"
       id="clipPath70">
      <path
         d="M 0,612 H 792 V 0 H 0 Z"
         transform="translate(-252.232,-292.60101)"
         id="path70" />
    </clipPath>
    <clipPath
       clipPathUnits="userSpaceOnUse"
       id="clipPath68">
      <path
         d="M 0,612 H 792 V 0 H 0 Z"
         transform="translate(-247.49731,-302.25311)"
         id="path68" />
    </clipPath>
    <clipPath
       clipPathUnits="userSpaceOnUse"
       id="clipPath66">
      <path
         d="M 0,612 H 792 V 0 H 0 Z"
         transform="translate(-249.00111,-312.52441)"
         id="path66" />
    </clipPath>
    <clipPath
       clipPathUnits="userSpaceOnUse"
       id="clipPath64">
      <path
         d="M 0,612 H 792 V 0 H 0 Z"
         transform="translate(-247.87611,-320.74581)"
         id="path64" />
    </clipPath>
    <clipPath
       clipPathUnits="userSpaceOnUse"
       id="clipPath62">
      <path
         d="M 0,612 H 792 V 0 H 0 Z"
         transform="translate(-238.7101,-325.28781)"
         id="path62" />
    </clipPath>
    <clipPath
       clipPathUnits="userSpaceOnUse"
       id="clipPath60">
      <path
         d="M 0,612 H 792 V 0 H 0 Z"
         transform="translate(-246.32671,-335.15291)"
         id="path60" />
    </clipPath>
    <clipPath
       clipPathUnits="userSpaceOnUse"
       id="clipPath58">
      <path
         d="M 0,612 H 792 V 0 H 0 Z"
         transform="translate(-241.23051,-342.74651)"
         id="path58" />
    </clipPath>
    <clipPath
       clipPathUnits="userSpaceOnUse"
       id="clipPath56">
      <path
         d="M 0,612 H 792 V 0 H 0 Z"
         transform="translate(-235.21581,-346.94451)"
         id="path56" />
    </clipPath>
    <clipPath
       clipPathUnits="userSpaceOnUse"
       id="clipPath54">
      <path
         d="M 0,612 H 792 V 0 H 0 Z"
         transform="translate(-267.9583,-301.50331)"
         id="path54" />
    </clipPath>
    <clipPath
       clipPathUnits="userSpaceOnUse"
       id="clipPath52">
      <path
         d="M 0,612 H 792 V 0 H 0 Z"
         transform="translate(-264.9781,-315.07651)"
         id="path52" />
    </clipPath>
    <clipPath
       clipPathUnits="userSpaceOnUse"
       id="clipPath50">
      <path
         d="M 0,612 H 792 V 0 H 0 Z"
         transform="translate(-265.69771,-312.81521)"
         id="path50" />
    </clipPath>
    <clipPath
       clipPathUnits="userSpaceOnUse"
       id="clipPath48">
      <path
         d="M 0,612 H 792 V 0 H 0 Z"
         transform="translate(-268.1071,-319.77781)"
         id="path48" />
    </clipPath>
    <clipPath
       clipPathUnits="userSpaceOnUse"
       id="clipPath46">
      <path
         d="M 0,612 H 792 V 0 H 0 Z"
         transform="translate(-279.7786,-342.46891)"
         id="path46" />
    </clipPath>
    <clipPath
       clipPathUnits="userSpaceOnUse"
       id="clipPath44">
      <path
         d="M 0,612 H 792 V 0 H 0 Z"
         transform="translate(-270.67621,-352.85641)"
         id="path44" />
    </clipPath>
    <clipPath
       clipPathUnits="userSpaceOnUse"
       id="clipPath42">
      <path
         d="M 0,612 H 792 V 0 H 0 Z"
         transform="translate(-258.517,-329.70591)"
         id="path42" />
    </clipPath>
    <clipPath
       clipPathUnits="userSpaceOnUse"
       id="clipPath40">
      <path
         d="M 0,612 H 792 V 0 H 0 Z"
         transform="translate(-264.1873,-343.12031)"
         id="path40" />
    </clipPath>
    <clipPath
       clipPathUnits="userSpaceOnUse"
       id="clipPath38">
      <path
         d="M 0,612 H 792 V 0 H 0 Z"
         transform="translate(-253.9894,-340.96751)"
         id="path38" />
    </clipPath>
    <clipPath
       clipPathUnits="userSpaceOnUse"
       id="clipPath36">
      <path
         d="M 0,612 H 792 V 0 H 0 Z"
         transform="translate(-257.2477,-341.25501)"
         id="path36" />
    </clipPath>
    <clipPath
       clipPathUnits="userSpaceOnUse"
       id="clipPath32">
      <path
         d="M 0,612 H 792 V 0 H 0 Z"
         transform="translate(-256.18951,-357.80031)"
         id="path32" />
    </clipPath>
    <clipPath
       clipPathUnits="userSpaceOnUse"
       id="clipPath34">
      <path
         d="M 0,612 H 792 V 0 H 0 Z"
         transform="translate(-259.0621,-357.94461)"
         id="path34" />
    </clipPath>
    <clipPath
       clipPathUnits="userSpaceOnUse"
       id="clipPath30">
      <path
         d="M 0,612 H 792 V 0 H 0 Z"
         transform="translate(-253.78221,-357.18921)"
         id="path30" />
    </clipPath>
    <clipPath
       clipPathUnits="userSpaceOnUse"
       id="clipPath28">
      <path
         d="M 0,612 H 792 V 0 H 0 Z"
         transform="translate(-251.83681,-356.64971)"
         id="path28" />
    </clipPath>
    <clipPath
       clipPathUnits="userSpaceOnUse"
       id="clipPath26">
      <path
         d="M 0,612 H 792 V 0 H 0 Z"
         transform="translate(-246.82611,-375.66601)"
         id="path26" />
    </clipPath>
    <clipPath
       clipPathUnits="userSpaceOnUse"
       id="clipPath24">
      <path
         d="M 0,612 H 792 V 0 H 0 Z"
         transform="translate(-246.53151,-371.58001)"
         id="path24" />
    </clipPath>
    <clipPath
       clipPathUnits="userSpaceOnUse"
       id="clipPath22">
      <path
         d="M 0,612 H 792 V 0 H 0 Z"
         transform="translate(-247.08181,-366.97121)"
         id="path22" />
    </clipPath>
    <clipPath
       clipPathUnits="userSpaceOnUse"
       id="clipPath20">
      <path
         d="M 0,612 H 792 V 0 H 0 Z"
         transform="translate(-248.6518,-361.09051)"
         id="path20" />
    </clipPath>
    <clipPath
       clipPathUnits="userSpaceOnUse"
       id="clipPath18">
      <path
         d="M 0,612 H 792 V 0 H 0 Z"
         transform="translate(-240.81961,-357.84191)"
         id="path18" />
    </clipPath>
    <clipPath
       clipPathUnits="userSpaceOnUse"
       id="clipPath16">
      <path
         d="M 0,612 H 792 V 0 H 0 Z"
         transform="translate(-264.85011,-323.77621)"
         id="path16" />
    </clipPath>
    <clipPath
       clipPathUnits="userSpaceOnUse"
       id="clipPath14">
      <path
         d="M 0,612 H 792 V 0 H 0 Z"
         transform="translate(-255.355,-352.84561)"
         id="path14" />
    </clipPath>
    <clipPath
       clipPathUnits="userSpaceOnUse"
       id="clipPath12">
      <path
         d="M 0,612 H 792 V 0 H 0 Z"
         transform="translate(-264.85011,-350.97891)"
         id="path12" />
    </clipPath>
    <clipPath
       clipPathUnits="userSpaceOnUse"
       id="clipPath10">
      <path
         d="M 0,612 H 792 V 0 H 0 Z"
         transform="translate(-276.7831,-344.39991)"
         id="path10" />
    </clipPath>
    <clipPath
       clipPathUnits="userSpaceOnUse"
       id="clipPath8">
      <path
         d="M 0,612 H 792 V 0 H 0 Z"
         transform="translate(-269.7571,-336.88411)"
         id="path8" />
    </clipPath>
    <clipPath
       clipPathUnits="userSpaceOnUse"
       id="clipPath6">
      <path
         d="M 0,612 H 792 V 0 H 0 Z"
         transform="translate(-282.30591,-336.88411)"
         id="path6" />
    </clipPath>
    <clipPath
       clipPathUnits="userSpaceOnUse"
       id="clipPath4">
      <path
         d="M 0,612 H 792 V 0 H 0 Z"
         transform="translate(-277.70181,-328.88671)"
         id="path4" />
    </clipPath>
  </defs>
  <g
     inkscape:label="Capa 1"
     inkscape:groupmode="layer"
     id="layer1"
     transform="translate(-63.667601,-126.08943)">
    <path
       id="path1"
       d="M 0.21242701,206.00683 V 89.000322 H 210.82446 V 206.00683 Z"
       style="display:none;fill:#121f13;fill-opacity:1;fill-rule:nonzero;stroke:none;stroke-width:0.792395"
       inkscape:label="fondo" />
    <g
       id="g3"
       inkscape:label="lúpulo">
      <path
         id="path3"
         d="m 0,0 c -1.612,-2.871 -5.684,-4.786 -8.912,-4.679 1.326,1.07 2.834,1.843 4.327,2.617 C -3.07,-1.296 -1.621,-0.619 0,0"
         style="fill:#5a5f22;fill-opacity:1;fill-rule:nonzero;stroke:none"
         transform="matrix(0,-0.79239418,-0.79239418,0,110.21835,134.52273)"
         clip-path="url(#clipPath4)" />
      <path
         id="path5"
         d="m 0,0 c -0.749,-2.01 -2.554,-3.44 -4.581,-3.996 -0.691,-0.161 -1.447,-0.234 -2.174,0.019 0.571,0.507 1.057,0.905 1.564,1.292 C -3.597,-1.502 -2,-0.45 0,0"
         style="fill:#5a5f22;fill-opacity:1;fill-rule:nonzero;stroke:none"
         transform="matrix(0,-0.79239418,-0.79239418,0,103.88125,130.87446)"
         clip-path="url(#clipPath6)" />
      <path
         id="path7"
         d="m 0,0 c -2.431,-3.24 -7.352,-4.762 -11.262,-4.031 -0.273,0.055 -0.545,0.113 -0.813,0.192 1.045,0.349 2.08,0.556 3.119,0.854 C -5.867,-2.199 -2.98,-1.182 0,0"
         style="fill:#5a5f22;fill-opacity:1;fill-rule:nonzero;stroke:none"
         transform="matrix(0,-0.79239418,-0.79239418,0,103.88125,140.81806)"
         clip-path="url(#clipPath8)" />
      <path
         id="path9"
         d="M 0,0 C -3.553,0.016 -6.793,1.028 -10.265,1.656 -7.33,3.247 -2.502,2 0,0"
         style="fill:#5a5f22;fill-opacity:1;fill-rule:nonzero;stroke:none"
         transform="matrix(0,-0.79239418,-0.79239418,0,97.925777,135.2507)"
         clip-path="url(#clipPath10)" />
      <path
         id="path11"
         d="m 0,0 c -1.469,-1.634 -3.183,-2.859 -4.971,-4.055 -1.81,-1.172 -3.58,-2.179 -5.57,-3.101 C -8.776,-3.693 -3.769,-0.67 0,0"
         style="fill:#5a5f22;fill-opacity:1;fill-rule:nonzero;stroke:none"
         transform="matrix(0,-0.79239418,-0.79239418,0,92.712607,144.70634)"
         clip-path="url(#clipPath12)" />
      <path
         id="path13"
         d="m 0,0 c -0.249,-0.666 -0.575,-1.364 -0.881,-2.004 -0.205,-0.38 -0.476,-0.905 -0.626,-1.307 -0.354,-0.741 -1.118,-1.093 -1.943,-1.189 0,0 -0.146,0.112 -0.146,0.112 -0.122,0.82 0.02,1.651 0.644,2.185 0.347,0.247 0.788,0.649 1.1,0.944 0.539,0.461 1.127,0.957 1.706,1.371 z"
         style="fill:#5a5f22;fill-opacity:1;fill-rule:nonzero;stroke:none"
         transform="matrix(0,-0.79239418,-0.79239418,0,91.233447,152.2302)"
         clip-path="url(#clipPath14)" />
      <path
         id="path15"
         d="M 0,0 -3.401,-0.253 -3.038,1.55 Z"
         style="display:inline;fill:#5a5f22;fill-opacity:1;fill-rule:nonzero;stroke:none"
         transform="matrix(0,-0.79239418,-0.79239418,0,114.26788,144.70634)"
         clip-path="url(#clipPath16)" />
      <path
         id="path27"
         d="M 0,0 C -1.399,5.583 -3.463,14.984 -1.969,20.49 -2.178,19.653 -2.266,18.793 -2.297,17.935 -2.394,13.634 -1.484,9.381 -0.48,5.221 -0.062,3.557 0.395,1.895 0.905,0.268 Z"
         style="fill:#5a5f22;fill-opacity:1;fill-rule:nonzero;stroke:none"
         transform="matrix(0,-0.79239418,-0.79239418,0,88.219107,155.018)"
         clip-path="url(#clipPath28)" />
      <path
         id="path29"
         d="m 0,0 c -0.689,2.911 -1.299,5.828 -1.797,8.775 -0.246,1.472 -0.464,2.95 -0.603,4.438 -0.1,1.469 -0.306,3.023 0.176,4.445 C -2.452,16.946 -2.437,16.19 -2.403,15.453 -2.125,11.749 -1.185,8.128 -0.28,4.536 0.097,3.101 0.492,1.665 0.911,0.247 Z"
         style="fill:#5a5f22;fill-opacity:1;fill-rule:nonzero;stroke:none"
         transform="matrix(0,-0.79239418,-0.79239418,0,87.791607,153.47648)"
         clip-path="url(#clipPath30)" />
      <path
         id="path31"
         d="m 0,0 c -0.627,2.461 -1.178,4.928 -1.632,7.425 -0.224,1.246 -0.421,2.498 -0.554,3.759 -0.11,1.253 -0.244,2.546 0.041,3.784 -0.207,-1.248 0.007,-2.515 0.193,-3.753 0.426,-2.481 1.069,-4.92 1.758,-7.34 0.348,-1.209 0.714,-2.417 1.1,-3.608 z"
         style="fill:#5a5f22;fill-opacity:1;fill-rule:nonzero;stroke:none"
         transform="matrix(0,-0.79239418,-0.79239418,0,87.307367,151.56895)"
         clip-path="url(#clipPath32)" />
      <path
         id="path33"
         d="M 0,0 -0.004,-0.001 C -0.003,0 -0.001,0 0,0 m -9.85,-2.014 c 0.168,0.121 4.155,2.97 9.528,3.825 C 0.025,1.88 0.443,1.767 0.723,1.346 1.487,0.198 2.47,-7.729 -4.847,-15.03 l -1.299,1.303 c 5.846,5.832 5.795,11.805 5.455,13.605 -4.6,-0.905 -8.045,-3.357 -8.081,-3.383 z"
         style="fill:#7b8131;fill-opacity:1;fill-rule:nonzero;stroke:none"
         transform="matrix(0,-0.79239418,-0.79239418,0,87.193027,149.29272)"
         clip-path="url(#clipPath34)" />
      <path
         id="path35"
         d="M 0,0 C 9.542,3.178 12.342,10.712 13.029,13.249 6.14,14.805 2.61,13.348 2.574,13.333 l -0.739,1.684 c 0.175,0.077 4.369,1.868 12.52,-0.195 l 0.823,-0.208 -0.142,-0.837 C 14.958,13.314 12.977,2.383 0.581,-1.745 Z"
         style="fill:#7b8131;fill-opacity:1;fill-rule:nonzero;stroke:none"
         transform="matrix(0,-0.79239418,-0.79239418,0,100.41777,150.73044)"
         clip-path="url(#clipPath36)" />
      <path
         id="path37"
         d="M 0,0 0.401,1.795 C 0.616,1.748 5.682,0.582 7.186,-3.019 L 7.385,-3.497 7.079,-3.916 C 5.939,-5.475 4.673,-7.503 4.605,-8.038 L 2.78,-7.806 c 0.139,1.094 1.671,3.373 2.487,4.522 C 3.881,-0.9 0.041,-0.009 0,0"
         style="fill:#7b8131;fill-opacity:1;fill-rule:nonzero;stroke:none"
         transform="matrix(0,-0.79239418,-0.79239418,0,100.64559,153.3123)"
         clip-path="url(#clipPath38)" />
      <path
         id="path39"
         d="m 0,0 0.54,1.758 c 0.792,-0.243 7.795,-2.466 9.892,-5.593 l 0.136,-0.201 0.018,-0.243 c 0.023,-0.305 0.453,-7.583 -9.161,-11.906 l -0.755,1.678 c 7.515,3.379 8.059,8.677 8.084,9.855 C 7.093,-2.54 1.916,-0.589 0,0"
         style="fill:#7b8131;fill-opacity:1;fill-rule:nonzero;stroke:none"
         transform="matrix(0,-0.79239418,-0.79239418,0,98.939727,145.23154)"
         clip-path="url(#clipPath40)" />
      <path
         id="path41"
         d="m 0,0 0.411,1.793 c 0.333,-0.076 8.205,-1.939 11.067,-8.17 l 0.153,-0.335 -0.119,-0.347 c -0.095,-0.278 -1.065,-2.766 -5.749,-4.623 l -0.678,1.71 c 2.981,1.181 4.144,2.609 4.529,3.221 C 6.972,-1.661 0.071,-0.017 0,0"
         style="fill:#7b8131;fill-opacity:1;fill-rule:nonzero;stroke:none"
         transform="matrix(0,-0.79239418,-0.79239418,0,109.56922,149.72465)"
         clip-path="url(#clipPath42)" />
      <path
         id="path43"
         d="M 0,0 0.639,1.725 C 1.027,1.581 10.17,-1.871 11.393,-8.389 L 11.455,-8.72 11.289,-9.013 C 11.196,-9.176 8.953,-13.054 3.572,-15.55 l -0.774,1.668 c 4.021,1.866 6.117,4.619 6.712,5.498 C 8.2,-3.102 0.084,-0.031 0,0"
         style="fill:#7b8131;fill-opacity:1;fill-rule:nonzero;stroke:none"
         transform="matrix(0,-0.79239418,-0.79239418,0,91.224887,140.08977)"
         clip-path="url(#clipPath44)" />
      <path
         id="path45"
         d="M 0,0 0.485,1.774 C 1.137,1.596 6.905,-0.045 8.412,-2.75 L 8.566,-3.027 8.517,-3.341 C 8.459,-3.707 7.036,-12.348 1.321,-15.182 l -0.817,1.647 C 4.79,-11.409 6.325,-4.943 6.637,-3.39 5.537,-1.945 2.057,-0.562 0,0"
         style="fill:#7b8131;fill-opacity:1;fill-rule:nonzero;stroke:none"
         transform="matrix(0,-0.79239418,-0.79239418,0,99.455887,132.87708)"
         clip-path="url(#clipPath46)" />
      <path
         id="path47"
         d="M 0,0 C 10.719,2.313 12.197,10.063 12.401,12.179 9.159,13.635 4.14,12.39 4.087,12.376 l -0.454,1.783 c 0.257,0.065 6.331,1.578 10.178,-0.637 l 0.456,-0.262 0.005,-0.526 C 14.27,12.611 14.282,9.771 12.56,6.552 10.98,3.6 7.586,-0.245 0.388,-1.798 Z"
         style="fill:#7b8131;fill-opacity:1;fill-rule:nonzero;stroke:none"
         transform="matrix(0,-0.79239418,-0.79239418,0,117.43619,142.12551)"
         clip-path="url(#clipPath48)" />
      <path
         id="path49"
         d="M 0,0 0.209,1.828 0.104,0.914 0.207,1.828 C 0.256,1.823 5.134,1.317 8.263,4.074 10,5.604 10.905,7.89 10.953,10.869 L 12.792,10.84 C 12.736,7.315 11.617,4.571 9.468,2.684 5.718,-0.609 0.232,-0.026 0,0"
         style="fill:#7b8131;fill-opacity:1;fill-rule:nonzero;stroke:none"
         transform="matrix(0,-0.79239418,-0.79239418,0,122.95331,144.03471)"
         clip-path="url(#clipPath50)" />
      <path
         id="path51"
         d="m 0,0 c 0.107,0.095 2.619,2.367 2.082,6.122 l 1.821,0.26 C 4.582,1.611 1.349,-1.265 1.211,-1.385 Z"
         style="fill:#7b8131;fill-opacity:1;fill-rule:nonzero;stroke:none"
         transform="matrix(0,-0.79239418,-0.79239418,0,121.16147,144.60492)"
         clip-path="url(#clipPath52)" />
    </g>
    <g
       id="g2"
       inkscape:label="malta"
       style="display:inline">
      <path
         id="path53"
         d="M 0,0 C -0.116,0.055 -0.25,0.099 -0.402,0.13 -0.555,0.161 -0.717,0.163 -0.888,0.136 L -18.16,-2.591 c -0.184,-0.029 -0.35,-0.083 -0.499,-0.162 -0.148,-0.079 -0.275,-0.163 -0.381,-0.253 -0.131,-0.107 -0.272,-0.268 -0.358,-0.392 l -1.292,2.907 c 0.136,-0.077 0.284,-0.147 0.445,-0.209 0.131,-0.053 0.275,-0.098 0.431,-0.136 0.156,-0.037 0.32,-0.042 0.492,-0.015 L -1.2,2.01 c 0.145,0.023 0.286,0.076 0.423,0.16 0.136,0.083 0.259,0.171 0.368,0.262 0.133,0.108 0.252,0.22 0.357,0.336 L 0.376,-0.235 C 0.269,-0.142 0.143,-0.063 0,0"
         style="fill:#e9b400;fill-opacity:1;fill-rule:nonzero;stroke:none"
         transform="matrix(0,-0.79239418,-0.79239418,0,131.91679,142.24342)"
         clip-path="url(#clipPath54)" />
      <path
         id="path55"
         d="M 0,0 0.324,3.965 C 0.433,3.869 0.543,3.78 0.654,3.698 0.743,3.627 0.844,3.565 0.959,3.512 1.074,3.46 1.18,3.443 1.277,3.462 L 9.012,5.01 0.955,5.95 8.464,9.78 1.748,8.377 C 1.597,8.346 1.455,8.286 1.322,8.197 1.188,8.109 1.07,8.017 0.967,7.922 0.841,7.81 0.724,7.686 0.617,7.552 l 0.237,2.901 C 0.968,10.38 1.084,10.317 1.201,10.266 1.309,10.223 1.42,10.186 1.535,10.155 1.649,10.124 1.759,10.12 1.862,10.142 l 10.807,2.291 c 0.086,0.018 0.176,0.065 0.271,0.142 0.094,0.076 0.176,0.155 0.246,0.237 0.088,0.097 0.168,0.203 0.24,0.318 L 14.27,9.846 c -0.121,0.092 -0.25,0.169 -0.387,0.231 -0.11,0.055 -0.228,0.095 -0.354,0.119 -0.126,0.025 -0.247,0.006 -0.364,-0.056 L 7.055,7.178 13.911,6.745 c 0.143,-0.001 0.274,0.036 0.392,0.113 0.118,0.076 0.216,0.167 0.295,0.272 0.098,0.124 0.069,0.237 0.147,0.385 0,0 0.7,-2.46 1.369,-4.525 0.066,-0.204 -0.462,0.351 -0.639,0.439 -0.159,0.074 -0.328,0.133 -0.507,0.176 -0.177,0.043 -0.359,0.046 -0.546,0.01 L 1.301,1.048 C 1.136,1.016 0.978,0.947 0.827,0.841 0.676,0.736 0.539,0.62 0.417,0.494 0.267,0.345 0.128,0.181 0,0"
         style="fill:#e9b400;fill-opacity:1;fill-rule:nonzero;stroke:none"
         transform="matrix(0,-0.79239418,-0.79239418,0,95.909447,168.18839)"
         clip-path="url(#clipPath56)" />
      <path
         id="path57"
         d="m 0,0 8.516,2.543 -8.77,-0.457 z m -5.252,-0.89 c 0.159,-0.116 0.36,-0.149 0.519,-0.223 0.143,-0.061 0.308,-0.109 0.494,-0.141 0.185,-0.033 0.375,-0.018 0.569,0.046 0.193,0.064 0.39,0.128 0.589,0.192 0.199,0.064 0.373,0.124 0.523,0.179 0.177,0.061 0.353,0.121 0.53,0.18 l -0.238,2.703 -1.64,-0.055 c -0.161,0 -0.323,-0.044 -0.486,-0.13 C -4.556,1.774 -4.703,1.681 -4.833,1.579 -4.99,1.46 -5.209,1.317 -5.353,1.172 l -0.08,3.109 c 0.107,-0.08 0.252,-0.143 0.371,-0.197 0.106,-0.045 0.214,-0.086 0.326,-0.123 0.112,-0.038 0.221,-0.06 0.325,-0.069 0.052,-0.003 0.279,0.005 0.68,0.025 0.399,0.021 0.915,0.041 1.546,0.061 0.63,0.021 1.338,0.048 2.124,0.081 0.784,0.033 1.582,0.066 2.394,0.098 0.81,0.033 1.599,0.065 2.366,0.096 0.765,0.032 1.451,0.058 2.059,0.076 0.606,0.019 1.098,0.038 1.477,0.057 0.377,0.018 0.586,0.025 0.625,0.019 0.138,-0.002 0.268,0.038 0.388,0.119 0.12,0.082 0.229,0.167 0.327,0.257 0.105,0.103 0.328,0.203 0.438,0.33 L 11.436,0.473 C 11.243,0.58 10.947,0.683 10.78,0.752 10.63,0.809 10.473,0.855 10.311,0.889 10.148,0.922 10.013,0.916 9.907,0.869 9.882,0.864 9.687,0.802 9.32,0.68 8.952,0.557 8.473,0.4 7.881,0.208 7.286,0.015 6.6,-0.206 5.821,-0.455 5.034,-0.707 4.224,-0.964 3.389,-1.227 2.545,-1.492 1.71,-1.757 0.884,-2.022 0.05,-2.289 -0.708,-2.535 -1.389,-2.761 -2.076,-2.988 -2.649,-3.176 -3.103,-3.323 -3.561,-3.47 -3.819,-3.557 -3.876,-3.584 -4.005,-3.639 -4.14,-3.719 -4.282,-3.825 -4.424,-3.93 -4.552,-4.033 -4.665,-4.135 -4.808,-4.257 -4.873,-4.45 -5.001,-4.603 Z"
         style="fill:#e9b400;fill-opacity:1;fill-rule:nonzero;stroke:none"
         transform="matrix(0,-0.79239418,-0.79239418,0,99.235917,163.42237)"
         clip-path="url(#clipPath58)" />
      <path
         id="path59"
         d="M 0,0 C 0.081,-0.315 0.269,-0.556 0.565,-0.724 0.863,-0.892 1.183,-0.943 1.527,-0.876 L 6.554,0.1 C 6.913,0.17 7.178,0.335 7.35,0.594 7.522,0.852 7.556,1.137 7.454,1.447 L 7.014,2.784 -0.348,1.355 Z m -7.018,-4.702 c -0.19,-0.037 -0.37,-0.106 -0.54,-0.208 -0.171,-0.101 -0.32,-0.21 -0.447,-0.326 -0.157,-0.137 -0.394,-0.387 -0.498,-0.546 l -0.679,3.611 c 0.174,-0.082 0.531,-0.121 0.719,-0.186 0.169,-0.054 0.354,-0.098 0.552,-0.133 0.199,-0.034 0.392,-0.033 0.579,0.003 l 0.023,0.005 -0.023,-0.005 3.447,0.67 c 0.357,0.069 0.628,0.235 0.811,0.496 0.183,0.26 0.24,0.541 0.171,0.843 L -3.197,0.801 -7.756,-0.084 C -7.954,-0.122 -8.134,-0.189 -8.298,-0.283 -8.462,-0.378 -8.613,-0.481 -8.751,-0.592 -8.902,-0.72 -9.19,-1.014 -9.336,-1.17 l -0.473,3.435 c 0.196,-0.069 0.445,-0.166 0.64,-0.222 0.177,-0.046 0.361,-0.084 0.551,-0.114 0.191,-0.03 0.368,-0.03 0.533,0.002 L 7.131,4.886 c 0.193,0.037 0.373,0.106 0.538,0.205 0.164,0.1 0.308,0.201 0.43,0.305 0.133,0.12 0.264,0.245 0.392,0.377 L 9.918,1.872 C 10.075,1.428 10.061,1.033 10.004,0.605 9.946,0.175 9.801,-0.224 9.567,-0.59 9.331,-0.958 9.018,-1.274 8.627,-1.539 8.235,-1.805 7.776,-1.989 7.253,-2.091 L 2.236,-3.065 C 1.65,-3.179 1.072,-3.169 0.507,-3.037 -0.057,-2.905 -0.56,-2.672 -1.003,-2.34 -1.25,-2.746 -1.585,-3.1 -2.01,-3.401 -2.436,-3.702 -2.926,-3.908 -3.48,-4.015 Z"
         style="fill:#e9b400;fill-opacity:1;fill-rule:nonzero;stroke:none"
         transform="matrix(0,-0.79239418,-0.79239418,0,105.25305,159.38417)"
         clip-path="url(#clipPath60)" />
      <path
         id="path61"
         d="M 0,0 -0.736,3.329 C -0.578,3.252 -0.407,3.183 -0.22,3.124 -0.067,3.071 0.1,3.029 0.282,2.995 0.463,2.962 0.653,2.964 0.851,3.002 l 16.272,3.133 c 0.182,0.035 0.351,0.104 0.508,0.205 0.156,0.102 0.293,0.207 0.411,0.315 0.145,0.128 0.615,0.51 0.721,0.644 L 20.24,3.728 C 20.07,3.832 19.407,3.852 19.198,3.917 19.029,3.976 18.84,4.018 18.629,4.046 18.418,4.074 18.203,4.067 17.984,4.026 L 1.376,0.92 C 1.158,0.879 0.964,0.811 0.792,0.715 0.62,0.619 0.473,0.516 0.352,0.408 0.202,0.281 0.097,0.147 0,0"
         style="fill:#e9b400;fill-opacity:1;fill-rule:nonzero;stroke:none"
         transform="matrix(0,-0.79239418,-0.79239418,0,113.07009,165.41953)"
         clip-path="url(#clipPath62)" />
      <path
         id="path63"
         d="M 0,0 10.614,3.462 -0.69,2.091 Z m -7.318,-1.7 c 0.19,-0.101 0.375,-0.181 0.555,-0.24 0.162,-0.05 0.342,-0.084 0.542,-0.103 0.198,-0.02 0.392,0.006 0.583,0.077 0.19,0.071 0.667,0.177 0.864,0.249 0.196,0.072 1.884,0.707 2.03,0.767 0.174,0.067 0.549,0.139 0.723,0.206 L -2.872,1.941 -6.873,1.642 C -7.051,1.633 -7.222,1.578 -7.385,1.478 -7.549,1.378 -7.692,1.271 -7.814,1.158 -7.961,1.025 -8.008,0.899 -8.134,0.742 L -9.09,4.111 c 0.145,-0.088 0.293,-0.16 0.445,-0.217 0.133,-0.046 0.269,-0.087 0.408,-0.124 0.139,-0.038 0.269,-0.058 0.392,-0.062 0.061,-0.001 0.321,0.02 0.78,0.065 0.456,0.044 3.257,0.233 3.97,0.289 0.71,0.056 1.508,0.123 2.39,0.201 0.878,0.078 1.77,0.156 2.675,0.234 0.901,0.077 1.777,0.154 2.628,0.228 0.846,0.075 1.603,0.138 2.272,0.189 0.667,0.051 1.207,0.097 1.622,0.137 0.414,0.04 0.642,0.057 0.684,0.052 0.151,0.005 2.301,0.701 2.417,0.809 0.125,0.124 0.202,0.294 0.336,0.448 L 14.067,1.671 C 13.889,1.765 13.635,1.852 13.476,1.91 13.333,1.959 10.075,1.44 9.963,1.388 9.937,1.382 9.733,1.309 9.352,1.169 8.969,1.029 8.474,0.849 7.865,0.63 7.255,0.411 6.556,0.162 5.767,-0.119 4.976,-0.4 4.165,-0.686 3.335,-0.977 2.501,-1.269 1.682,-1.558 0.877,-1.844 0.07,-2.131 -0.66,-2.394 -1.311,-2.632 -1.964,-2.871 -4.016,-3.641 -4.448,-3.796 -4.881,-3.95 -5.123,-4.041 -5.176,-4.067 c -0.119,-0.055 -0.24,-0.132 -0.363,-0.23 -0.123,-0.098 -0.213,-0.219 -0.328,-0.285 -0.114,-0.066 -0.272,-0.524 -0.328,-0.37 -0.362,0.988 -1.123,3.252 -1.123,3.252"
         style="fill:#e9b400;fill-opacity:1;fill-rule:nonzero;stroke:none"
         transform="matrix(0,-0.79239418,-0.79239418,0,116.66915,158.15644)"
         clip-path="url(#clipPath64)" />
      <path
         id="path65"
         d="m 0,0 c 0.132,0.099 0.243,0.201 0.334,0.306 0.111,0.124 0.208,0.253 0.29,0.386 l 1.005,-3.433 c -0.138,0.105 -0.292,0.192 -0.46,0.262 -0.139,0.06 -0.291,0.107 -0.455,0.141 -0.165,0.034 -0.317,0.037 -0.457,0.01 l -0.818,-0.158 c -0.417,-0.081 -2.723,-0.459 -3.135,-0.358 -0.411,0.102 -0.795,0.274 -1.152,0.516 -0.357,0.242 -0.67,0.543 -0.941,0.902 -0.27,0.359 -0.471,0.764 -0.601,1.216 l -0.178,0.615 c -0.131,0.45 -0.174,0.886 -0.13,1.307 0.044,0.421 0.155,0.806 0.334,1.154 0.178,0.348 0.422,0.645 0.731,0.89 0.309,0.245 0.673,0.412 1.089,0.498 l 14.873,3.101 c 0.442,0.092 0.882,0.09 1.32,-0.006 0.439,-0.096 0.85,-0.265 1.235,-0.509 0.385,-0.243 0.725,-0.549 1.02,-0.918 C 14.2,5.554 14.42,5.135 14.566,4.668 L 14.771,4.009 C 14.916,3.541 14.967,3.087 14.923,2.649 14.878,2.211 14.756,1.814 14.556,1.458 14.356,1.103 14.09,0.799 13.759,0.547 13.427,0.294 13.038,0.125 12.592,0.039 L 11.945,-0.087 C 11.756,-0.123 10.609,-0.576 10.469,-0.679 10.329,-0.781 10.211,-0.886 10.116,-0.994 9.999,-1.122 9.905,-1.26 9.837,-1.408 L 8.748,2.128 C 8.894,2.022 9.05,1.934 9.215,1.862 9.348,1.799 9.5,1.747 9.67,1.705 9.839,1.664 10.018,1.662 10.207,1.7 l 1.71,0.523 c 0.309,0.061 0.534,0.226 0.673,0.493 0.14,0.268 0.161,0.558 0.065,0.869 l -0.204,0.657 c -0.1,0.324 -0.289,0.575 -0.566,0.751 -0.276,0.176 -0.569,0.232 -0.878,0.169 L -3.921,2.116 C -4.2,2.059 -4.406,1.905 -4.54,1.652 -4.675,1.4 -4.696,1.116 -4.604,0.801 l 0.179,-0.617 c 0.092,-0.316 0.267,-0.561 0.525,-0.735 0.259,-0.174 0.534,-0.232 0.827,-0.174 l 2.609,0.524 C -0.287,-0.166 -0.132,-0.099 0,0"
         style="fill:#e9b400;fill-opacity:1;fill-rule:nonzero;stroke:none"
         transform="matrix(0,-0.79239418,-0.79239418,0,123.18374,157.26499)"
         clip-path="url(#clipPath66)" />
      <path
         id="path67"
         d="m 0,0 c -0.148,-0.082 -0.275,-0.17 -0.38,-0.263 -0.13,-0.11 -0.236,-0.229 -0.321,-0.356 L -1.823,2.293 C -1.685,2.216 -1.534,2.147 -1.371,2.087 -1.238,2.035 -1.092,1.991 -0.934,1.955 -0.776,1.92 -0.611,1.917 -0.438,1.947 L 5.952,2.888 4.863,5.305 -1.282,4.542 C -1.469,4.51 -1.637,4.452 -1.787,4.368 -1.937,4.285 -2.065,4.195 -2.17,4.1 -2.301,3.989 -2.408,3.868 -2.494,3.738 L -3.647,6.86 c 0.14,-0.079 0.292,-0.149 0.457,-0.21 0.135,-0.054 0.282,-0.099 0.442,-0.135 0.159,-0.037 0.893,-0.133 1.067,-0.102 l 18.669,3.258 c 0.147,0.025 0.286,0.082 0.417,0.169 0.131,0.087 0.251,0.179 0.359,0.275 0.134,0.113 0.3,0.239 0.404,0.36 l 0.834,-2.986 c -0.125,0.093 -0.297,0.165 -0.432,0.23 -0.119,0.056 -0.252,0.1 -0.401,0.131 -0.15,0.031 -0.318,0.031 -0.505,-0.002 L 6.855,5.799 7.837,3.26 17.73,5.082 c 0.146,0.026 0.775,0.167 0.905,0.253 0.13,0.086 0.248,0.176 0.356,0.27 0.132,0.112 0.294,0.235 0.398,0.354 L 20.063,2.914 C 19.939,3.005 19.571,3.131 19.438,3.195 19.32,3.25 19.188,3.292 19.04,3.323 18.893,3.353 18.235,3.267 18.05,3.234 L 0.5,0.172 C 0.315,0.139 0.148,0.082 0,0"
         style="fill:#e9b400;fill-opacity:1;fill-rule:nonzero;stroke:none"
         transform="matrix(0,-0.79239418,-0.79239418,0,131.32266,158.4566)"
         clip-path="url(#clipPath68)" />
      <path
         id="path69"
         d="m 0,0 -1.526,2.224 -1.541,2.408 c 0.176,-0.083 0.459,-0.137 0.63,-0.196 0.157,-0.049 0.322,-0.09 0.496,-0.124 0.174,-0.034 0.34,-0.039 0.497,-0.015 l 0.04,0.007 15.635,2.413 c 0.197,0.03 1.281,0.228 1.43,0.311 0.149,0.085 0.271,0.17 0.366,0.258 0.12,0.104 0.315,0.225 0.413,0.338 L 16.757,4.637 C 16.581,4.803 16.378,4.916 16.13,4.974 15.882,5.032 14.755,4.907 14.572,4.878 L 1.76,2.901 2.04,1.248 C 2.066,1.096 2.131,0.945 2.237,0.793 2.343,0.642 2.458,0.508 2.585,0.39 2.711,0.272 2.835,0.169 2.957,0.08 3.078,-0.008 3.175,-0.071 3.248,-0.107 Z"
         style="fill:#e9b400;fill-opacity:1;fill-rule:nonzero;stroke:none"
         transform="matrix(0,-0.79239418,-0.79239418,0,138.97092,154.70485)"
         clip-path="url(#clipPath70)" />
      <path
         id="path71"
         d="M 0,0 6.483,2.212 -0.828,1.86 Z m -4.138,-0.761 c 0.125,-0.046 1.341,0.082 1.497,0.06 0.156,-0.023 1.202,0.084 1.32,0.131 0.141,0.05 0.281,0.101 0.422,0.152 L -2.04,1.779 -4.001,1.706 C -4.14,1.703 -5.396,1.443 -5.526,1.365 -5.656,1.286 -5.769,1.202 -5.867,1.112 -5.985,1.006 -6.095,0.89 -6.197,0.764 L -8.875,3.465 C -8.766,3.39 -8.652,3.329 -8.536,3.279 -8.434,3.239 -8.33,3.203 -8.223,3.17 -8.116,3.137 -8.015,3.117 -7.92,3.112 c 0.047,-0.003 0.25,0.01 0.608,0.037 0.358,0.028 2.907,0.154 3.474,0.186 0.567,0.033 1.207,0.073 1.916,0.122 0.71,0.048 1.435,0.096 2.173,0.144 0.738,0.048 1.459,0.096 2.162,0.143 0.703,0.047 1.334,0.087 1.893,0.118 0.56,0.031 1.014,0.06 1.364,0.087 0.351,0.026 0.544,0.037 0.579,0.032 0.128,0.001 0.252,0.043 0.371,0.125 0.118,0.083 0.227,0.169 0.327,0.26 0.109,0.104 0.639,0.42 0.755,0.55 L 8.054,0.479 C 7.899,0.566 7.753,0.637 7.616,0.692 7.492,0.738 7.152,0.676 7.055,0.634 7.033,0.63 6.859,0.573 6.532,0.462 6.206,0.352 5.784,0.212 5.267,0.041 4.75,-0.13 4.159,-0.323 3.495,-0.54 2.831,-0.757 2.154,-0.976 1.463,-1.198 0.772,-1.419 0.095,-1.638 -0.567,-1.854 -1.23,-2.07 -1.508,-2.393 -1.589,-2.502 c 0,0 -2.689,1.796 -2.549,1.741"
         style="fill:#e9b400;fill-opacity:1;fill-rule:nonzero;stroke:none"
         transform="matrix(0,-0.79239418,-0.79239418,0,142.27252,147.26879)"
         clip-path="url(#clipPath72)" />
      <g
         id="g4"
         inkscape:label="raiz"
         style="display:inline;fill:#e9b400">
        <path
           id="path17"
           d="m 0,0 c -0.122,5.577 0.504,11.168 1.999,16.601 0.399,1.356 0.727,2.746 1.409,4.031 1.34,2.559 3.32,4.92 5.889,6.715 1.29,0.891 1.341,0.81 0.098,-0.105 C 6.636,25.171 4.614,22.432 3.425,19.514 2.3,15.842 1.631,12.07 1.313,8.3 1.093,5.55 1.059,2.791 1.224,0.04 Z"
           style="fill:#e9b400;fill-opacity:1;fill-rule:nonzero;stroke:none"
           transform="matrix(0,-0.79239417,-0.79239417,0,87.274406,163.74797)"
           clip-path="url(#clipPath18)" />
        <path
           id="path19"
           d="m 0,0 c -2.381,0.352 -4.682,1.059 -6.942,1.865 0,0 0.707,0.146 0.707,0.146 -1.969,-1.904 -4.036,-3.723 -6.376,-5.168 1.153,1.717 2.533,3.248 3.973,4.721 0.576,0.587 1.176,1.164 1.78,1.723 C -4.487,2.382 -2.148,1.368 0,0"
           style="fill:#e9b400;fill-opacity:1;fill-rule:nonzero;stroke:none"
           transform="matrix(0,-0.79239417,-0.79239417,0,84.700238,157.54178)"
           clip-path="url(#clipPath20)" />
        <path
           id="path21"
           d="m 0,0 c -1.77,0.373 -3.45,1.059 -5.077,1.822 0,0 0.726,0.077 0.726,0.077 -1.684,-1.415 -3.472,-2.727 -5.51,-3.598 1.275,1.812 2.931,3.289 4.665,4.642 0,0 0.359,0.275 0.359,0.275 C -3.13,2.304 -1.451,1.3 0,0"
           style="fill:#e9b400;fill-opacity:1;fill-rule:nonzero;stroke:none"
           transform="matrix(0,-0.79239417,-0.79239417,0,80.040407,158.78584)"
           clip-path="url(#clipPath22)" />
        <path
           id="path23"
           d="m 0,0 c -1.302,0.623 -2.479,1.464 -3.602,2.357 0,0 0.612,-0.057 0.612,-0.057 C -4.594,1.34 -6.274,0.477 -8.094,0 c 1.335,1.326 2.931,2.336 4.572,3.23 0,0 0.345,0.183 0.345,0.183 C -2.017,2.379 -0.895,1.283 0,0"
           style="fill:#e9b400;fill-opacity:1;fill-rule:nonzero;stroke:none"
           transform="matrix(0,-0.79239417,-0.79239417,0,76.388416,159.22189)"
           clip-path="url(#clipPath24)" />
        <path
           id="path25"
           d="m 0,0 c -1.007,0.544 -1.895,1.273 -2.731,2.043 l 0.56,-0.069 C -3.512,1.152 -4.92,0.412 -6.449,0 c 1.106,1.134 2.438,2.003 3.809,2.773 0,0 0.323,0.177 0.323,0.177 C -1.447,2.052 -0.614,1.1 0,0"
           style="fill:#e9b400;fill-opacity:1;fill-rule:nonzero;stroke:none"
           transform="matrix(0,-0.79239417,-0.79239417,0,73.150697,158.98845)"
           clip-path="url(#clipPath26)" />
      </g>
      <path
         id="path73"
         d="m 0,0 c -6.293,-2.937 -9.541,-11.706 -9.576,-11.804 -6.314,-16.929 -4.186,-35.185 -1.288,-47.52 3.146,-13.396 7.841,-22.868 7.888,-22.962 l 0.034,-0.076 c 3.28,-8.321 8.309,-14.179 14.542,-16.94 3.47,-1.538 6.443,-1.729 7.78,-1.722 0.288,3.597 0.895,19.155 -7.784,37.643 -0.123,0.251 -13.045,26.79 -15.664,48.752 C -4.123,-14.189 -5.168,-5.282 0,0 m -15.57,-36.176 c 0,8.099 1.12,16.709 4.221,25.024 0.172,0.476 4.392,11.895 13.163,13.742 0.214,0.054 1.14,0.251 2.402,0 2.648,-0.527 7.403,-3.206 8.863,-15.179 0.046,-0.346 1.286,-7.216 -1.019,-15.41 l -0.745,-0.105 -0.869,-0.174 c 2.169,7.809 0.818,15.368 0.807,15.451 C 9.993,-2.494 6.32,0.092 4.136,0.671 -3.513,-3.035 -2.207,-14.286 -2.193,-14.4 0.388,-36.044 13.17,-62.301 13.298,-62.564 c 10.126,-21.568 7.976,-38.771 7.879,-39.492 l -0.098,-0.729 -0.73,-0.084 c -0.171,-0.02 -4.253,-0.459 -9.406,1.792 -4.7,2.054 -11.224,6.841 -15.627,17.986 -0.338,0.689 -4.926,10.169 -8.019,23.335 -1.541,6.561 -2.867,14.768 -2.867,23.58"
         style="fill:#e9b400;fill-opacity:1;fill-rule:nonzero;stroke:none"
         transform="matrix(0,-0.79239418,-0.79239418,0,65.818597,156.58092)"
         clip-path="url(#clipPath74)" />
    </g>
    <g
       id="g1"
       inkscape:label="cerveceria">
      <path
         id="path75"
         d="M 0,0 C 0.036,0.042 0.066,0.084 0.089,0.124 0.118,0.172 0.142,0.22 0.161,0.268 l 0.48,-0.956 C 0.592,-0.669 0.541,-0.656 0.485,-0.65 0.439,-0.645 0.389,-0.644 0.336,-0.649 0.284,-0.654 0.236,-0.667 0.194,-0.688 L -0.042,-0.807 C -0.169,-0.87 -0.3,-0.906 -0.435,-0.914 c -0.136,-0.007 -0.265,0.009 -0.389,0.05 -0.124,0.042 -0.239,0.104 -0.343,0.189 -0.105,0.084 -0.189,0.189 -0.253,0.316 l -0.086,0.173 c -0.064,0.127 -0.099,0.257 -0.106,0.39 -0.007,0.134 0.011,0.263 0.054,0.388 0.043,0.125 0.108,0.239 0.193,0.341 0.085,0.103 0.191,0.186 0.318,0.25 L 1.4,2.41 C 1.527,2.474 1.658,2.509 1.793,2.517 1.929,2.525 2.058,2.508 2.182,2.467 2.306,2.426 2.421,2.363 2.525,2.279 2.63,2.194 2.714,2.089 2.778,1.962 L 2.867,1.784 C 2.931,1.657 2.965,1.527 2.97,1.392 2.975,1.258 2.956,1.129 2.914,1.007 2.872,0.885 2.807,0.773 2.72,0.669 2.633,0.565 2.526,0.481 2.399,0.418 L 2.227,0.331 C 2.173,0.304 2.128,0.27 2.091,0.227 2.055,0.185 2.025,0.144 2.002,0.103 1.973,0.055 1.952,0.006 1.939,-0.044 L 1.457,0.918 C 1.505,0.899 1.555,0.885 1.606,0.878 1.649,0.87 1.696,0.867 1.748,0.869 1.8,0.871 1.852,0.886 1.906,0.913 L 2.102,1.011 C 2.19,1.055 2.249,1.123 2.277,1.214 2.306,1.305 2.299,1.393 2.257,1.478 L 2.167,1.656 C 2.123,1.744 2.056,1.803 1.967,1.833 1.878,1.863 1.789,1.855 1.701,1.811 L -0.747,0.584 C -0.831,0.542 -0.888,0.476 -0.918,0.386 -0.948,0.297 -0.94,0.208 -0.896,0.12 l 0.087,-0.173 c 0.044,-0.088 0.111,-0.147 0.2,-0.177 0.089,-0.029 0.178,-0.022 0.266,0.022 l 0.208,0.104 C -0.081,-0.077 -0.036,-0.042 0,0"
         style="fill:#7b8131;fill-opacity:1;fill-rule:nonzero;stroke:none"
         transform="matrix(0,-0.79239418,-0.79239418,0,67.524857,146.5443)"
         clip-path="url(#clipPath76)" />
      <path
         id="path77"
         d="m 0,0 c 0.043,-0.041 0.089,-0.075 0.136,-0.103 0.053,-0.03 0.108,-0.057 0.163,-0.082 l -0.91,-0.165 -0.722,1.868 c 0.06,-0.013 0.12,-0.025 0.179,-0.034 0.053,-0.007 0.109,-0.011 0.167,-0.011 0.057,-0.001 0.11,0.008 0.158,0.026 L 2.77,2.891 C 2.81,2.907 2.848,2.933 2.885,2.97 2.921,3.007 2.952,3.045 2.979,3.083 3.012,3.128 3.043,3.174 3.071,3.222 L 3.789,1.365 2.998,0.873 c 0.023,0.06 0.044,0.118 0.063,0.176 0.017,0.053 0.027,0.109 0.032,0.168 0.005,0.059 0,0.119 -0.013,0.178 L 3.073,1.413 2.77,2.194 1.425,1.673 1.65,1.091 1.652,1.085 C 1.669,1.041 1.695,1.002 1.728,0.969 1.762,0.936 1.797,0.908 1.833,0.885 1.875,0.86 1.92,0.838 1.969,0.82 L 0.989,0.441 C 1.012,0.478 1.031,0.517 1.047,0.56 1.06,0.598 1.069,0.641 1.073,0.691 1.076,0.741 1.067,0.794 1.046,0.85 L 0.818,1.439 -0.42,0.96 -0.104,0.143 C -0.078,0.088 -0.044,0.041 0,0"
         style="fill:#7b8131;fill-opacity:1;fill-rule:nonzero;stroke:none"
         transform="matrix(0,-0.79239418,-0.79239418,0,69.863217,146.17132)"
         clip-path="url(#clipPath78)" />
      <path
         id="path79"
         d="m 0,0 0.125,-0.426 c 0.028,-0.095 0.084,-0.165 0.169,-0.21 0.084,-0.044 0.172,-0.053 0.263,-0.026 l 1.088,0.319 c 0.094,0.027 0.164,0.083 0.21,0.165 0.045,0.083 0.053,0.171 0.026,0.266 L 1.756,0.515 Z m -1.967,-1.167 c 0.007,-0.007 0.021,-0.018 0.043,-0.031 0.022,-0.014 0.05,-0.026 0.084,-0.036 0.034,-0.01 0.077,-0.015 0.128,-0.013 0.051,0.001 0.108,0.018 0.17,0.05 l 1.003,0.677 -0.098,0.333 -1.106,-0.324 C -1.78,-0.522 -1.818,-0.543 -1.855,-0.574 -1.893,-0.605 -1.929,-0.639 -1.963,-0.676 -2,-0.718 -2.036,-0.765 -2.07,-0.815 L -2.366,0.193 C -2.315,0.172 -2.263,0.153 -2.209,0.138 -2.164,0.124 -2.12,0.113 -2.074,0.103 -2.029,0.094 -1.992,0.094 -1.963,0.102 L 1.801,1.206 C 1.846,1.219 1.89,1.243 1.931,1.278 1.973,1.312 2.01,1.348 2.044,1.385 2.081,1.427 2.119,1.472 2.159,1.519 L 2.523,0.277 C 2.563,0.141 2.575,0.006 2.558,-0.126 2.541,-0.259 2.501,-0.382 2.438,-0.497 2.376,-0.611 2.293,-0.712 2.191,-0.798 2.088,-0.884 1.969,-0.946 1.833,-0.986 L 0.745,-1.305 C 0.572,-1.356 0.4,-1.361 0.229,-1.319 c -0.171,0.042 -0.32,0.12 -0.448,0.234 -0.208,-0.145 -0.395,-0.277 -0.563,-0.393 l -0.569,-0.395 c -0.051,-0.037 -0.095,-0.08 -0.13,-0.129 -0.035,-0.048 -0.064,-0.093 -0.087,-0.136 -0.03,-0.053 -0.052,-0.105 -0.069,-0.154 z"
         style="fill:#7b8131;fill-opacity:1;fill-rule:nonzero;stroke:none"
         transform="matrix(0,-0.79239418,-0.79239418,0,70.493797,144.69834)"
         clip-path="url(#clipPath80)" />
      <path
         id="path81"
         d="m 0,0 c -0.043,0.035 -0.087,0.067 -0.132,0.097 -0.041,0.027 -0.086,0.049 -0.136,0.067 -0.05,0.018 -0.105,0.025 -0.166,0.021 L -4.394,0.078 C -4.446,0.076 -4.494,0.064 -4.538,0.044 -4.582,0.024 -4.62,0.002 -4.652,-0.023 -4.684,-0.047 -4.71,-0.071 -4.729,-0.095 -4.749,-0.119 -4.764,-0.136 -4.774,-0.147 l -0.01,-0.015 -0.227,1.078 -10e-4,0.006 c 0.042,-0.031 0.088,-0.054 0.14,-0.069 0.042,-0.013 0.091,-0.021 0.146,-0.022 0.055,-0.002 0.111,0.008 0.168,0.028 l 3.67,1.489 c 0.056,0.025 0.103,0.055 0.142,0.092 0.038,0.037 0.071,0.075 0.097,0.116 0.03,0.046 0.057,0.093 0.082,0.142 L -0.351,1.671 C -0.395,1.692 -0.442,1.709 -0.493,1.72 -0.535,1.733 -0.58,1.74 -0.626,1.741 -0.672,1.742 -0.718,1.734 -0.762,1.716 l -2.565,-1.013 2.756,0.105 c 0.048,0.001 0.092,0.012 0.135,0.032 0.041,0.019 0.079,0.044 0.113,0.073 0.041,0.031 0.078,0.065 0.11,0.102 z"
         style="fill:#7b8131;fill-opacity:1;fill-rule:nonzero;stroke:none"
         transform="matrix(0,-0.79239418,-0.79239418,0,73.445067,141.92987)"
         clip-path="url(#clipPath82)" />
      <path
         id="path83"
         d="M 0,0 C 0.033,-0.05 0.069,-0.094 0.109,-0.132 0.153,-0.173 0.2,-0.212 0.248,-0.249 l -0.923,0.051 -0.268,1.985 c 0.055,-0.027 0.111,-0.052 0.166,-0.075 0.05,-0.019 0.103,-0.036 0.159,-0.05 0.056,-0.014 0.11,-0.018 0.161,-0.011 L 3.367,2.167 C 3.41,2.173 3.453,2.19 3.497,2.217 3.541,2.245 3.58,2.274 3.615,2.305 3.658,2.341 3.698,2.379 3.736,2.418 L 4.002,0.446 3.119,0.151 C 3.155,0.204 3.189,0.256 3.221,0.308 3.25,0.355 3.273,0.407 3.292,0.464 3.31,0.52 3.319,0.579 3.32,0.64 L 3.317,0.659 3.205,1.489 1.775,1.296 1.859,0.677 V 0.67 C 1.866,0.623 1.881,0.58 1.906,0.54 1.931,0.5 1.959,0.465 1.989,0.434 2.024,0.4 2.063,0.368 2.106,0.339 L 1.065,0.199 C 1.096,0.229 1.124,0.263 1.149,0.301 1.17,0.335 1.189,0.375 1.204,0.422 1.219,0.47 1.223,0.524 1.215,0.583 L 1.13,1.209 -0.185,1.031 -0.068,0.163 C -0.055,0.104 -0.033,0.05 0,0"
         style="fill:#7b8131;fill-opacity:1;fill-rule:nonzero;stroke:none"
         transform="matrix(0,-0.79239418,-0.79239418,0,75.661637,144.83875)"
         clip-path="url(#clipPath84)" />
      <path
         id="path85"
         d="m 0,0 c 0.05,0.025 0.093,0.052 0.13,0.08 0.045,0.033 0.086,0.068 0.122,0.105 l 0.072,-1.067 c -0.037,0.036 -0.079,0.068 -0.129,0.095 -0.04,0.023 -0.085,0.042 -0.136,0.058 -0.051,0.016 -0.099,0.023 -0.146,0.019 l -0.264,-0.017 c -0.141,-0.01 -0.276,0.008 -0.404,0.053 -0.128,0.045 -0.241,0.111 -0.339,0.196 -0.099,0.086 -0.18,0.188 -0.244,0.307 -0.064,0.118 -0.1,0.248 -0.11,0.389 l -0.013,0.193 c -0.01,0.142 0.008,0.275 0.053,0.401 0.046,0.126 0.112,0.238 0.2,0.336 0.088,0.099 0.192,0.179 0.31,0.241 0.119,0.062 0.249,0.097 0.39,0.107 L 2.223,1.681 C 2.365,1.69 2.499,1.673 2.628,1.627 2.755,1.582 2.868,1.517 2.967,1.431 3.065,1.345 3.146,1.243 3.21,1.124 3.274,1.006 3.311,0.876 3.321,0.735 L 3.334,0.536 C 3.344,0.394 3.325,0.26 3.277,0.135 3.23,0.009 3.163,-0.102 3.077,-0.199 2.991,-0.295 2.888,-0.374 2.767,-0.436 2.646,-0.498 2.516,-0.533 2.374,-0.543 L 2.181,-0.556 C 2.121,-0.56 2.066,-0.575 2.016,-0.6 1.966,-0.624 1.923,-0.651 1.886,-0.679 1.841,-0.713 1.803,-0.75 1.771,-0.79 L 1.698,0.283 C 1.735,0.247 1.776,0.215 1.821,0.188 1.857,0.164 1.899,0.144 1.948,0.125 1.996,0.107 2.051,0.1 2.111,0.104 L 2.329,0.119 C 2.428,0.125 2.508,0.165 2.57,0.238 2.631,0.312 2.659,0.395 2.653,0.489 l -0.014,0.2 C 2.633,0.787 2.594,0.868 2.523,0.929 2.452,0.991 2.367,1.019 2.269,1.012 L -0.463,0.827 C -0.557,0.821 -0.635,0.782 -0.697,0.712 -0.759,0.641 -0.786,0.556 -0.78,0.457 l 0.013,-0.192 c 0.007,-0.099 0.046,-0.179 0.117,-0.241 0.07,-0.062 0.155,-0.09 0.254,-0.083 l 0.231,0.016 C -0.105,-0.039 -0.05,-0.025 0,0"
         style="fill:#7b8131;fill-opacity:1;fill-rule:nonzero;stroke:none"
         transform="matrix(0,-0.79239418,-0.79239418,0,77.286437,144.12385)"
         clip-path="url(#clipPath86)" />
      <path
         id="path87"
         d="m 0,0 c 0.026,-0.053 0.057,-0.102 0.092,-0.144 0.039,-0.047 0.08,-0.092 0.123,-0.134 l -0.91,0.166 -0.017,2.003 C -0.66,1.857 -0.608,1.825 -0.556,1.796 -0.509,1.77 -0.458,1.747 -0.404,1.726 -0.35,1.705 -0.298,1.695 -0.246,1.695 L 3.612,1.728 C 3.655,1.729 3.7,1.74 3.747,1.761 3.794,1.783 3.837,1.807 3.875,1.833 3.923,1.864 3.967,1.896 4.01,1.931 l 0.017,-1.99 -0.913,-0.182 c 0.042,0.048 0.083,0.095 0.121,0.143 0.034,0.043 0.063,0.092 0.089,0.146 0.025,0.054 0.042,0.111 0.05,0.171 V 0.238 L 3.366,1.075 1.924,1.063 1.929,0.438 V 0.432 C 1.929,0.385 1.939,0.34 1.959,0.297 1.979,0.254 2.002,0.216 2.028,0.181 2.058,0.143 2.093,0.107 2.132,0.073 L 1.082,0.064 c 0.034,0.026 0.066,0.056 0.096,0.091 0.025,0.03 0.048,0.068 0.07,0.113 0.021,0.045 0.031,0.098 0.03,0.158 L 1.273,1.058 -0.054,1.046 -0.046,0.17 C -0.042,0.11 -0.026,0.054 0,0"
         style="fill:#7b8131;fill-opacity:1;fill-rule:nonzero;stroke:none"
         transform="matrix(0,-0.79239418,-0.79239418,0,79.596977,144.62837)"
         clip-path="url(#clipPath88)" />
      <path
         id="path89"
         d="M 0,0 -0.021,-0.444 C -0.025,-0.543 0.005,-0.627 0.071,-0.697 0.136,-0.766 0.216,-0.803 0.31,-0.808 l 1.133,-0.053 c 0.099,-0.004 0.183,0.025 0.252,0.088 0.07,0.064 0.107,0.145 0.112,0.243 l 0.021,0.444 z m -2.24,-0.462 c 0.004,-0.009 0.014,-0.024 0.03,-0.044 0.016,-0.02 0.039,-0.04 0.068,-0.061 0.029,-0.021 0.068,-0.039 0.117,-0.054 0.049,-0.015 0.108,-0.018 0.177,-0.008 l 1.169,0.313 0.016,0.347 -1.151,0.054 C -1.853,0.087 -1.895,0.079 -1.941,0.062 -1.987,0.045 -2.032,0.024 -2.076,0.001 -2.125,-0.027 -2.174,-0.059 -2.223,-0.096 l 0.05,1.049 c 0.041,-0.036 0.084,-0.07 0.13,-0.103 0.037,-0.027 0.076,-0.053 0.116,-0.076 0.039,-0.023 0.074,-0.036 0.104,-0.037 L 2.096,0.553 C 2.143,0.551 2.192,0.559 2.242,0.578 2.293,0.598 2.34,0.619 2.384,0.643 2.433,0.671 2.483,0.7 2.536,0.732 L 2.476,-0.561 C 2.469,-0.703 2.436,-0.833 2.377,-0.953 2.317,-1.073 2.24,-1.177 2.143,-1.265 2.046,-1.352 1.936,-1.42 1.811,-1.468 1.686,-1.516 1.553,-1.537 1.412,-1.53 l -1.133,0.053 c -0.18,0.009 -0.344,0.06 -0.492,0.155 -0.149,0.095 -0.264,0.218 -0.348,0.368 -0.244,-0.07 -0.464,-0.133 -0.66,-0.188 L -1.887,-1.33 C -1.949,-1.349 -2.003,-1.375 -2.052,-1.409 -2.101,-1.444 -2.144,-1.477 -2.179,-1.51 -2.225,-1.551 -2.263,-1.592 -2.295,-1.634 Z"
         style="fill:#7b8131;fill-opacity:1;fill-rule:nonzero;stroke:none"
         transform="matrix(0,-0.79239418,-0.79239418,0,80.686677,143.45388)"
         clip-path="url(#clipPath90)" />
      <path
         id="path91"
         d="m 0,0 -0.056,-0.622 0.763,-0.515 0.056,0.629 z m -0.585,-0.678 c -0.032,0.028 -0.07,0.054 -0.115,0.078 -0.046,0.023 -0.096,0.038 -0.152,0.043 l -3.888,0.348 c -0.06,0.005 -0.116,0 -0.169,-0.014 -0.054,-0.015 -0.1,-0.033 -0.141,-0.056 -0.05,-0.025 -0.094,-0.056 -0.131,-0.091 l 0.095,1.065 C -5.051,0.657 -5.011,0.621 -4.966,0.587 -4.93,0.558 -4.89,0.531 -4.844,0.505 -4.799,0.479 -4.749,0.464 -4.693,0.459 l 3.888,-0.348 c 0.047,-0.004 0.095,0.002 0.144,0.019 0.049,0.018 0.094,0.037 0.135,0.059 0.049,0.026 0.095,0.054 0.136,0.085 l -0.095,-1.065 c -0.026,0.041 -0.06,0.079 -0.1,0.113"
         style="fill:#7b8131;fill-opacity:1;fill-rule:nonzero;stroke:none"
         transform="matrix(0,-0.79239418,-0.79239418,0,82.594137,141.2511)"
         clip-path="url(#clipPath92)" />
      <path
         id="path93"
         d="M 0,0 2.388,0.027 0.086,0.664 Z m -1.613,0.236 c 0.041,-0.049 0.084,-0.091 0.127,-0.127 0.039,-0.031 0.085,-0.06 0.138,-0.086 0.053,-0.026 0.109,-0.039 0.17,-0.039 0.061,0.001 0.123,0.002 0.185,0.002 0.063,0.001 0.119,0.002 0.167,0.005 0.056,10e-4 0.113,0.002 0.169,0.004 l 0.111,0.849 -0.515,0.139 C -1.111,0.998 -1.164,0.999 -1.219,0.987 -1.275,0.975 -1.326,0.959 -1.372,0.939 -1.427,0.916 -1.48,0.888 -1.532,0.856 l 0.135,1.041 C -1.367,1.858 -1.335,1.824 -1.3,1.793 -1.268,1.767 -1.236,1.743 -1.202,1.719 -1.169,1.695 -1.135,1.677 -1.102,1.664 -1.086,1.657 -1.02,1.639 -0.905,1.609 -0.789,1.579 -0.642,1.538 -0.462,1.486 -0.283,1.435 -0.08,1.378 0.145,1.316 0.371,1.254 0.601,1.191 0.835,1.125 1.069,1.06 1.299,0.997 1.525,0.935 1.751,0.873 1.952,0.816 2.13,0.765 2.307,0.714 2.452,0.674 2.565,0.644 2.678,0.614 2.741,0.596 2.753,0.59 2.799,0.575 2.848,0.575 2.899,0.59 2.951,0.605 3,0.623 3.046,0.643 3.097,0.666 3.15,0.694 3.206,0.726 L 3,-0.858 C 2.954,-0.809 2.91,-0.767 2.867,-0.731 2.828,-0.7 2.785,-0.671 2.738,-0.646 2.692,-0.62 2.649,-0.609 2.61,-0.613 2.601,-0.612 2.539,-0.612 2.424,-0.615 2.309,-0.617 2.16,-0.619 1.978,-0.621 1.796,-0.624 1.59,-0.626 1.36,-0.629 1.13,-0.631 0.895,-0.633 0.655,-0.634 0.414,-0.635 0.177,-0.637 -0.057,-0.639 -0.291,-0.641 -0.502,-0.644 -0.688,-0.648 -0.875,-0.651 -1.03,-0.654 -1.154,-0.655 -1.277,-0.656 -1.348,-0.658 -1.366,-0.66 c -0.039,-0.004 -0.082,-0.013 -0.127,-0.029 -0.045,-0.016 -0.086,-0.032 -0.123,-0.049 -0.046,-0.02 -0.09,-0.044 -0.133,-0.074 z"
         style="fill:#7b8131;fill-opacity:1;fill-rule:nonzero;stroke:none"
         transform="matrix(0,-0.79239418,-0.79239418,0,84.434787,144.23669)"
         clip-path="url(#clipPath94)" />
    </g>
  </g>
</svg>
